<svg xmlns="http://www.w3.org/2000/svg" xmlns:xlink="http://www.w3.org/1999/xlink" width="2081px" height="1383px" style="shape-rendering:geometricPrecision; text-rendering:geometricPrecision; image-rendering:optimizeQuality; fill-rule:evenodd; clip-rule:evenodd"><g><path style="opacity:1" fill="#01538c" d="M 727.5,288.5 C 713.264,306.412 700.598,325.412 689.5,345.5C 677.527,325.851 665.527,306.184 653.5,286.5C 717.523,188.022 806.189,122.522 919.5,90C 1058.73,55.425 1187.4,78.425 1305.5,159C 1429.13,251.581 1492.8,375.581 1496.5,531C 1496.61,603.387 1480.44,671.887 1448,736.5C 1424.89,737.388 1401.72,737.055 1378.5,735.5C 1432.52,643.364 1448.02,545.031 1425,440.5C 1390.64,309.806 1311.47,217.639 1187.5,164C 1083.34,124.254 980.008,126.254 877.5,170C 817.919,197.42 767.919,236.92 727.5,288.5 Z"></path></g><g><path style="opacity:1" fill="#ec1c23" d="M 727.5,288.5 C 789.141,391.777 851.308,494.777 914,597.5C 914.635,599.635 914.301,601.635 913,603.5C 902.833,621.833 892.667,640.167 882.5,658.5C 817.905,554.306 753.572,449.973 689.5,345.5C 700.598,325.412 713.264,306.412 727.5,288.5 Z"></path></g><g><path style="opacity:1" fill="#01538c" d="M 1305.5,823.5 C 1326.32,805.354 1344.65,785.02 1360.5,762.5C 1384.84,762.167 1409.18,762.5 1433.5,763.5C 1371.72,865.591 1283.72,934.424 1169.5,970C 1026.61,1008.69 894.28,986.353 772.5,903C 661.16,819.876 598.326,708.71 584,569.5C 576.828,478.855 594.662,393.522 637.5,313.5C 638.274,312.289 639.107,312.289 640,313.5C 651.968,333.632 664.135,353.632 676.5,373.5C 631.242,482.815 632.742,591.481 681,699.5C 732.223,803.707 813.057,873.874 923.5,910C 1040.72,943.302 1151.05,927.968 1254.5,864C 1272.66,851.924 1289.66,838.424 1305.5,823.5 Z"></path></g><g><path style="opacity:1" fill="#ec1c23" d="M 885.5,355.5 C 909.176,355.167 932.843,355.5 956.5,356.5C 972.436,384.042 988.103,411.708 1003.5,439.5C 992.691,460.45 981.358,481.117 969.5,501.5C 940.971,453.105 912.971,404.438 885.5,355.5 Z"></path></g><g><path style="opacity:1" fill="#ec1c23" d="M 1360.5,762.5 C 1344.65,785.02 1326.32,805.354 1305.5,823.5C 1143.17,823.667 980.833,823.5 818.5,823C 905.127,667.581 991.627,512.081 1078,356.5C 1101.43,355.173 1124.93,355.173 1148.5,356.5C 1117.29,413.096 1085.95,469.596 1054.5,526C 1075.2,562.565 1096.03,599.065 1117,635.5C 1169.59,542.662 1221.92,449.662 1274,356.5C 1297.43,355.173 1320.93,355.173 1344.5,356.5C 1269.51,491.157 1194.01,625.49 1118,759.5C 1085,702.833 1052,646.167 1019,589.5C 986.966,646.706 955.133,704.039 923.5,761.5C 1069.17,762.5 1214.83,762.833 1360.5,762.5 Z"></path></g><g><path style="opacity:1" fill="#ec1c23" d="M 1408.5,1102.5 C 1455.94,1099.45 1486.11,1120.78 1499,1166.5C 1506.27,1197.02 1504.6,1227.02 1494,1256.5C 1477.17,1293.51 1448.34,1310.34 1407.5,1307C 1378.27,1302.43 1357.77,1286.6 1346,1259.5C 1332.41,1224.95 1332.07,1190.29 1345,1155.5C 1356.75,1126.4 1377.92,1108.73 1408.5,1102.5 Z M 1415.5,1138.5 C 1429.22,1138.11 1440.06,1143.45 1448,1154.5C 1465.16,1186.78 1465.82,1219.45 1450,1252.5C 1437.19,1271.44 1420.69,1275.61 1400.5,1265C 1390.02,1256.2 1383.52,1245.04 1381,1231.5C 1376.08,1207.52 1378.08,1184.19 1387,1161.5C 1393.18,1149.46 1402.68,1141.8 1415.5,1138.5 Z"></path></g><g><path style="opacity:1" fill="#ec1c23" d="M 673.5,1103.5 C 689.44,1103.22 705.107,1105.06 720.5,1109C 746.938,1120.37 757.105,1140.21 751,1168.5C 746.402,1181.43 737.902,1190.93 725.5,1197C 743.562,1203.73 754.395,1216.56 758,1235.5C 762.064,1268.39 748.564,1290.23 717.5,1301C 688.341,1307.39 659.008,1308.22 629.5,1303.5C 629.5,1238.17 629.5,1172.83 629.5,1107.5C 644.266,1105.62 658.933,1104.29 673.5,1103.5 Z M 674.5,1137.5 C 686.004,1135.96 696.671,1138.13 706.5,1144C 715.211,1156.22 714.211,1167.55 703.5,1178C 699.469,1180.45 695.136,1182.12 690.5,1183C 683.508,1183.5 676.508,1183.67 669.5,1183.5C 669.5,1168.5 669.5,1153.5 669.5,1138.5C 671.415,1138.78 673.081,1138.45 674.5,1137.5 Z M 669.5,1216.5 C 681.656,1215.5 693.322,1217.33 704.5,1222C 715.609,1230.24 719.109,1241.07 715,1254.5C 709.651,1265.44 700.818,1271.27 688.5,1272C 682.13,1272.71 675.797,1272.54 669.5,1271.5C 669.5,1253.17 669.5,1234.83 669.5,1216.5 Z"></path></g><g><path style="opacity:1" fill="#ec1c23" d="M 968.5,1103.5 C 985.664,1102.94 1002.33,1105.44 1018.5,1111C 1035.79,1119.39 1045.29,1133.23 1047,1152.5C 1050,1178.67 1040.17,1198.17 1017.5,1211C 1025.84,1215.67 1031.67,1222.51 1035,1231.5C 1041.38,1255.72 1047.88,1279.89 1054.5,1304C 1040.49,1304.83 1026.49,1304.67 1012.5,1303.5C 1006.8,1285.81 1002.3,1267.81 999,1249.5C 993.966,1230.05 981.466,1222.39 961.5,1226.5C 961.5,1252.5 961.5,1278.5 961.5,1304.5C 948.5,1304.5 935.5,1304.5 922.5,1304.5C 922.5,1238.83 922.5,1173.17 922.5,1107.5C 937.936,1105.62 953.269,1104.29 968.5,1103.5 Z M 965.5,1138.5 C 972.508,1138.33 979.508,1138.5 986.5,1139C 1000.46,1141.97 1007.46,1150.64 1007.5,1165C 1006.46,1181.38 997.79,1190.71 981.5,1193C 974.842,1193.5 968.175,1193.67 961.5,1193.5C 961.5,1175.5 961.5,1157.5 961.5,1139.5C 963.099,1139.77 964.432,1139.43 965.5,1138.5 Z"></path></g><g><path style="opacity:1" fill="#ec1c23" d="M 1574.5,1103.5 C 1590.87,1103.09 1606.87,1105.26 1622.5,1110C 1638.33,1116.8 1648.16,1128.64 1652,1145.5C 1657.97,1174.29 1648.47,1196.13 1623.5,1211C 1632.57,1216.07 1638.74,1223.57 1642,1233.5C 1647.86,1256.92 1654.02,1280.25 1660.5,1303.5C 1646.52,1304.5 1632.52,1304.83 1618.5,1304.5C 1612.97,1285.03 1608.14,1265.36 1604,1245.5C 1601.65,1237.5 1596.82,1231.66 1589.5,1228C 1582.56,1226.71 1575.56,1226.21 1568.5,1226.5C 1568.5,1252.5 1568.5,1278.5 1568.5,1304.5C 1555.17,1304.5 1541.83,1304.5 1528.5,1304.5C 1528.5,1238.83 1528.5,1173.17 1528.5,1107.5C 1543.94,1105.62 1559.27,1104.29 1574.5,1103.5 Z M 1571.5,1138.5 C 1578.84,1138.33 1586.17,1138.5 1593.5,1139C 1606.93,1142.44 1613.6,1151.1 1613.5,1165C 1612.47,1181.37 1603.8,1190.7 1587.5,1193C 1581.18,1193.5 1574.84,1193.67 1568.5,1193.5C 1568.5,1175.5 1568.5,1157.5 1568.5,1139.5C 1569.79,1139.74 1570.79,1139.4 1571.5,1138.5 Z"></path></g><g><path style="opacity:1" fill="#ec1c23" d="M 1858.5,1103.5 C 1936.01,1102.18 1971.84,1140.18 1966,1217.5C 1958.91,1273.59 1927.08,1303.09 1870.5,1306C 1851.08,1306.92 1831.75,1306.08 1812.5,1303.5C 1812.5,1238.17 1812.5,1172.83 1812.5,1107.5C 1827.94,1105.73 1843.28,1104.4 1858.5,1103.5 Z M 1858.5,1139.5 C 1902.02,1137.02 1924.02,1157.68 1924.5,1201.5C 1924.82,1219.21 1920.32,1235.55 1911,1250.5C 1895.1,1267.52 1875.6,1273.86 1852.5,1269.5C 1852.33,1226.83 1852.5,1184.17 1853,1141.5C 1854.95,1140.89 1856.78,1140.22 1858.5,1139.5 Z"></path></g><g><path style="opacity:1" fill="#ec1c23" d="M 112.5,1105.5 C 125.833,1105.5 139.167,1105.5 152.5,1105.5C 152.5,1158.83 152.5,1212.17 152.5,1265.5C 175.5,1265.5 198.5,1265.5 221.5,1265.5C 221.5,1278.5 221.5,1291.5 221.5,1304.5C 185.167,1304.5 148.833,1304.5 112.5,1304.5C 112.5,1238.17 112.5,1171.83 112.5,1105.5 Z"></path></g><g><path style="opacity:1" fill="#ec1c23" d="M 235.5,1105.5 C 248.833,1105.5 262.167,1105.5 275.5,1105.5C 275.333,1144.83 275.5,1184.17 276,1223.5C 275.867,1236.3 278.867,1248.3 285,1259.5C 294.358,1270.69 305.858,1273.53 319.5,1268C 330.058,1260.74 335.891,1250.57 337,1237.5C 338.451,1193.52 338.951,1149.52 338.5,1105.5C 351.833,1105.5 365.167,1105.5 378.5,1105.5C 378.667,1147.17 378.5,1188.83 378,1230.5C 373.45,1289.73 341.95,1314.56 283.5,1305C 263.522,1299.02 250.022,1286.19 243,1266.5C 238.999,1254.83 236.665,1242.83 236,1230.5C 235.5,1188.83 235.333,1147.17 235.5,1105.5 Z"></path></g><g><path style="opacity:1" fill="#ec1c23" d="M 418.5,1105.5 C 436.41,1105.17 454.243,1105.51 472,1106.5C 484.382,1150.36 494.715,1194.69 503,1239.5C 513.246,1194.85 524.912,1150.52 538,1106.5C 555.423,1105.51 572.923,1105.17 590.5,1105.5C 593.55,1171.54 596.883,1237.54 600.5,1303.5C 587.183,1304.5 573.85,1304.83 560.5,1304.5C 558.759,1253.18 557.259,1201.84 556,1150.5C 543.611,1201.06 530.444,1251.39 516.5,1301.5C 505.833,1301.5 495.167,1301.5 484.5,1301.5C 476.828,1268.48 468.995,1235.48 461,1202.5C 457.236,1185.25 453.903,1167.92 451,1150.5C 449.11,1201.86 446.944,1253.19 444.5,1304.5C 432.167,1304.5 419.833,1304.5 407.5,1304.5C 411.13,1238.16 414.796,1171.83 418.5,1105.5 Z"></path></g><g><path style="opacity:1" fill="#ec1c23" d="M 784.5,1105.5 C 820.5,1105.5 856.5,1105.5 892.5,1105.5C 892.5,1118.17 892.5,1130.83 892.5,1143.5C 870.167,1143.5 847.833,1143.5 825.5,1143.5C 825.5,1156.83 825.5,1170.17 825.5,1183.5C 846.5,1183.5 867.5,1183.5 888.5,1183.5C 888.5,1195.83 888.5,1208.17 888.5,1220.5C 867.5,1220.5 846.5,1220.5 825.5,1220.5C 825.5,1235.83 825.5,1251.17 825.5,1266.5C 849.167,1266.5 872.833,1266.5 896.5,1266.5C 896.5,1279.17 896.5,1291.83 896.5,1304.5C 859.167,1304.5 821.833,1304.5 784.5,1304.5C 784.5,1238.17 784.5,1171.83 784.5,1105.5 Z"></path></g><g><path style="opacity:1" fill="#ec1c23" d="M 1104.5,1105.5 C 1118.83,1105.5 1133.17,1105.5 1147.5,1105.5C 1155.21,1154.46 1162.71,1203.46 1170,1252.5C 1178.29,1203.45 1186.79,1154.45 1195.5,1105.5C 1210.24,1104.86 1224.74,1105.53 1239,1107.5C 1247.12,1154.86 1254.78,1202.19 1262,1249.5C 1268.86,1201.33 1276.7,1153.33 1285.5,1105.5C 1299.17,1105.5 1312.83,1105.5 1326.5,1105.5C 1311.82,1171.57 1296.82,1237.57 1281.5,1303.5C 1266.94,1304.82 1252.44,1304.82 1238,1303.5C 1229.68,1256.9 1222.01,1210.23 1215,1163.5C 1207.33,1210.66 1198.83,1257.66 1189.5,1304.5C 1174.59,1304.82 1159.76,1304.49 1145,1303.5C 1131.05,1237.58 1117.55,1171.58 1104.5,1105.5 Z"></path></g><g><path style="opacity:1" fill="#ec1c23" d="M 1680.5,1105.5 C 1694.17,1105.5 1707.83,1105.5 1721.5,1105.5C 1721.5,1158.83 1721.5,1212.17 1721.5,1265.5C 1744.5,1265.5 1767.5,1265.5 1790.5,1265.5C 1790.5,1278.5 1790.5,1291.5 1790.5,1304.5C 1753.83,1304.5 1717.17,1304.5 1680.5,1304.5C 1680.5,1238.17 1680.5,1171.83 1680.5,1105.5 Z"></path></g></svg>